<svg xmlns="http://www.w3.org/2000/svg" viewBox="0 0 64 64" width="64" height="64">
  <!-- Baseball body -->
  <circle cx="32" cy="32" r="30" fill="#F5F5DC" stroke="#C8364B" stroke-width="2"/>
  <!-- Stitching left -->
  <path d="M20 8 C14 16, 12 24, 14 32 C12 40, 14 48, 20 56" fill="none" stroke="#C8364B" stroke-width="2" stroke-linecap="round"/>
  <!-- Stitch marks left -->
  <line x1="17" y1="12" x2="22" y2="14" stroke="#C8364B" stroke-width="1.5" stroke-linecap="round"/>
  <line x1="14" y1="18" x2="19" y2="19" stroke="#C8364B" stroke-width="1.5" stroke-linecap="round"/>
  <line x1="13" y1="24" x2="18" y2="24.5" stroke="#C8364B" stroke-width="1.5" stroke-linecap="round"/>
  <line x1="13" y1="30" x2="18" y2="30" stroke="#C8364B" stroke-width="1.5" stroke-linecap="round"/>
  <line x1="13" y1="36" x2="18" y2="35.5" stroke="#C8364B" stroke-width="1.5" stroke-linecap="round"/>
  <line x1="14" y1="42" x2="19" y2="41" stroke="#C8364B" stroke-width="1.5" stroke-linecap="round"/>
  <line x1="16" y1="48" x2="21" y2="46" stroke="#C8364B" stroke-width="1.5" stroke-linecap="round"/>
  <line x1="18" y1="52" x2="23" y2="50" stroke="#C8364B" stroke-width="1.5" stroke-linecap="round"/>
  <!-- Stitching right -->
  <path d="M44 8 C50 16, 52 24, 50 32 C52 40, 50 48, 44 56" fill="none" stroke="#C8364B" stroke-width="2" stroke-linecap="round"/>
  <!-- Stitch marks right -->
  <line x1="47" y1="12" x2="42" y2="14" stroke="#C8364B" stroke-width="1.5" stroke-linecap="round"/>
  <line x1="50" y1="18" x2="45" y2="19" stroke="#C8364B" stroke-width="1.5" stroke-linecap="round"/>
  <line x1="51" y1="24" x2="46" y2="24.5" stroke="#C8364B" stroke-width="1.5" stroke-linecap="round"/>
  <line x1="51" y1="30" x2="46" y2="30" stroke="#C8364B" stroke-width="1.5" stroke-linecap="round"/>
  <line x1="51" y1="36" x2="46" y2="35.5" stroke="#C8364B" stroke-width="1.5" stroke-linecap="round"/>
  <line x1="50" y1="42" x2="45" y2="41" stroke="#C8364B" stroke-width="1.5" stroke-linecap="round"/>
  <line x1="48" y1="48" x2="43" y2="46" stroke="#C8364B" stroke-width="1.5" stroke-linecap="round"/>
  <line x1="46" y1="52" x2="41" y2="50" stroke="#C8364B" stroke-width="1.5" stroke-linecap="round"/>
</svg>
